HIERARCHY
ROOT Hips
{
	OFFSET 0.000000 0.000000 0.000000 
	CHANNELS 6 Xposition Yposition Zposition Zrotation Yrotation Xrotation
	JOINT LeftUpLeg
	{
		OFFSET 1.363060 -1.794630 0.839290 
		CHANNELS 3 Zrotation Yrotation Xrotation
		JOINT LeftLeg
		{
			OFFSET 2.448110 -6.726130 0.000000 
			CHANNELS 3 Zrotation Yrotation Xrotation
			JOINT LeftFoot
			{
				OFFSET 2.562200 -7.039590 0.000000 
				CHANNELS 3 Zrotation Yrotation Xrotation
				JOINT LeftToeBase
				{
					OFFSET 0.157640 -0.433110 2.322550 
					CHANNELS 3 Zrotation Yrotation Xrotation
					End Site
					{
						OFFSET 0.000000 0.000000 0.000000 
					}
				}
			}
		}
	}
	JOINT RightUpLeg
	{
		OFFSET -1.305520 -1.794630 0.839290 
		CHANNELS 3 Zrotation Yrotation Xrotation
		JOINT RightLeg
		{
			OFFSET -2.542530 -6.985550 0.000000 
			CHANNELS 3 Zrotation Yrotation Xrotation
			JOINT RightFoot
			{
				OFFSET -2.568260 -7.056230 0.000000 
				CHANNELS 3 Zrotation Yrotation Xrotation
				JOINT RightToeBase
				{
					OFFSET -0.164730 -0.452590 2.363150 
					CHANNELS 3 Zrotation Yrotation Xrotation
					End Site
					{
						OFFSET 0.000000 0.000000 0.000000 
					}
				}
			}
		}
	}
	JOINT Spine
	{
		OFFSET 0.028270 2.035590 -0.193380 
		CHANNELS 3 Zrotation Yrotation Xrotation
		JOINT Spine1
		{
			OFFSET 0.056720 2.048850 -0.042750 
			CHANNELS 3 Zrotation Yrotation Xrotation
			JOINT Neck1
			{
				OFFSET -0.054170 1.746240 0.172020 
				CHANNELS 3 Zrotation Yrotation Xrotation
				JOINT Head
				{
					OFFSET 0.104070 1.761360 -0.123970 
					CHANNELS 3 Zrotation Yrotation Xrotation
					End Site
					{
						OFFSET 0.000000 0.000000 0.000000 
					}
				}
			}
			JOINT LeftArm
			{
				OFFSET 3.362410 1.200890 -0.311210 
				CHANNELS 3 Zrotation Yrotation Xrotation
				JOINT LeftForeArm
				{
					OFFSET 4.983000 -0.000000 -0.000000 
					CHANNELS 3 Zrotation Yrotation Xrotation
					JOINT LeftHand
					{
						OFFSET 3.483560 -0.000000 -0.000000 
						CHANNELS 3 Zrotation Yrotation Xrotation
						JOINT LeftHandIndex1
						{
							OFFSET 0.715260 -0.000000 -0.000000 
							CHANNELS 3 Zrotation Yrotation Xrotation
							End Site
							{
								OFFSET 0.000000 0.000000 0.000000 
							}
						}
					}
				}
			}
			JOINT RightArm
			{
				OFFSET -3.136600 1.374050 -0.404650 
				CHANNELS 3 Zrotation Yrotation Xrotation
				JOINT RightForeArm
				{
					OFFSET -5.241900 -0.000000 -0.000000 
					CHANNELS 3 Zrotation Yrotation Xrotation
					JOINT RightHand
					{
						OFFSET -3.444170 -0.000000 -0.000000 
						CHANNELS 3 Zrotation Yrotation Xrotation
						JOINT RightHandIndex1
						{
							OFFSET -0.622530 -0.000000 -0.000000 
							CHANNELS 3 Zrotation Yrotation Xrotation
							End Site
							{
								OFFSET 0.000000 0.000000 0.000000 
							}
						}
					}
				}
			}
		}
	}
}
MOTION
Frames: 12
Frame Time: 0.041667
-2.902297 17.875222 34.897712 -0.048801 -5.753480 35.269547 -20.361111 -8.929179 -31.992451 -2.280801 9.944420 22.449672 -3.665490 13.573918 3.090130 0.919600 -6.109800 -17.103400 12.953587 15.763305 -49.690583 2.944410 -14.100717 23.617466 6.021832 -22.285483 -1.546655 -0.000300 0.105900 -0.290800 3.537615 2.022211 -45.992135 -0.613136 0.016565 0.405737 7.738838 -14.971717 33.000817 2.935600 -6.515700 19.112000 -74.517627 5.476525 24.364168 37.216077 -42.520626 -11.897725 0.290435 3.890266 -11.129754 -7.125000 0.000000 0.000000 78.171164 -28.522545 22.355850 -33.266388 33.761704 -6.001125 -0.266065 -4.698362 8.038750 7.125000 0.000000 0.000000 
-2.910550 17.881148 34.999291 0.068086 -5.843558 35.291751 -20.526684 -8.723285 -31.563794 -2.347549 9.746496 22.057156 -3.674685 13.586515 3.139459 0.943600 -6.186800 -17.327400 12.022679 16.555404 -49.389871 3.213517 -13.551211 22.003598 6.468211 -23.524715 -2.536712 -0.000300 -0.116700 0.320700 3.529035 1.943590 -46.031087 -0.585761 -0.045380 0.396162 7.832754 -15.139948 32.797443 2.975000 -6.600200 19.031900 -74.692978 5.614747 24.552885 37.091107 -42.416251 -11.817691 0.306138 3.874814 -10.993528 -7.125000 0.000000 0.000000 78.298173 -28.584396 22.390770 -33.254627 33.747703 -5.984025 -0.245554 -4.684262 8.074781 7.125000 0.000000 0.000000 
-2.920073 17.886015 35.101928 0.187164 -5.932204 35.314392 -20.686299 -8.529609 -31.123685 -2.413129 9.548073 21.662124 -3.687540 13.608599 3.192266 0.970300 -6.271100 -17.573200 10.900023 17.557913 -49.068011 3.438525 -13.039865 20.480996 6.996353 -24.967917 -3.838070 -0.004800 -0.445600 1.224300 3.533067 1.864988 -46.066211 -0.554149 -0.110343 0.395457 7.921618 -15.303311 32.603889 3.012200 -6.682700 18.960300 -74.893319 5.755245 24.713639 36.926595 -42.279654 -11.713489 0.323286 3.859465 -10.818439 -7.125000 0.000000 0.000000 78.405953 -28.637220 22.427561 -33.259470 33.749755 -5.972747 -0.224152 -4.668645 8.087872 7.125000 0.000000 0.000000 
-2.930971 17.890142 35.205517 0.306246 -6.013316 35.331304 -20.834833 -8.359913 -30.664531 -2.476169 9.350904 21.269900 -3.706856 13.645117 3.235713 0.997900 -6.357100 -17.824100 9.573272 18.786331 -48.734095 3.622086 -12.574183 19.066077 7.596964 -26.593362 -5.519817 -0.019400 -0.899900 2.473400 3.541655 1.783942 -46.103858 -0.520778 -0.178343 0.391728 8.005538 -15.459183 32.417772 3.048100 -6.762600 18.891600 -75.118574 5.911516 24.847135 36.725219 -42.112790 -11.587686 0.336194 3.846854 -10.613356 -7.125000 0.000000 0.000000 78.504439 -28.692045 22.461389 -33.276412 33.762936 -5.966265 -0.203406 -4.652739 8.082784 7.125000 0.000000 0.000000 
-2.943246 17.892681 35.310270 0.422224 -6.088698 35.348953 -20.975083 -8.201489 -30.200979 -2.535352 9.159963 20.893374 -3.726035 13.678892 3.262937 1.024700 -6.439400 -18.064800 8.044619 20.240506 -48.418542 3.767340 -12.162581 17.774309 8.249497 -28.369318 -7.593244 -0.049900 -1.441700 3.965200 3.556268 1.703244 -46.136228 -0.489385 -0.247975 0.400255 8.081886 -15.611269 32.241268 3.079400 -6.840300 18.829800 -75.362416 6.065881 24.954959 36.487505 -41.915500 -11.440672 0.343554 3.837002 -10.387673 -7.125000 0.000000 0.000000 78.592273 -28.733455 22.485693 -33.303365 33.786946 -5.964165 -0.182357 -4.637167 8.066426 7.125000 0.000000 0.000000 
-2.956895 17.893210 35.415870 0.539492 -6.157609 35.370973 -21.108043 -8.062492 -29.741460 -2.588839 8.980548 20.544174 -3.746511 13.712809 3.265562 1.050900 -6.518800 -18.297500 6.321219 21.902987 -48.148171 3.881092 -11.808821 16.616693 8.913067 -30.205169 -10.126245 -0.104300 -2.082300 5.733100 3.557465 1.620864 -46.178203 -0.459685 -0.316548 0.405820 8.152933 -15.758741 32.069674 3.109800 -6.917100 18.765800 -75.628242 6.239961 25.046333 36.214105 -41.688648 -11.274445 0.342213 3.832954 -10.136585 -7.125000 0.000000 0.000000 78.689770 -28.784406 22.480847 -33.339442 33.818406 -5.966424 -0.162056 -4.623032 8.044161 7.125000 0.000000 0.000000 
-2.971709 17.891306 35.522739 0.652002 -6.221878 35.396713 -21.232705 -7.938454 -29.291192 -2.634482 8.818684 20.238132 -3.768073 13.744575 3.230796 1.077800 -6.599000 -18.532500 4.438533 23.735453 -47.941236 3.970411 -11.514146 15.602830 9.531847 -31.990529 -13.124509 -0.189500 -2.803400 7.731900 3.572249 1.542242 -46.217472 -0.432354 -0.385600 0.419543 8.208903 -15.896284 31.910094 3.132200 -6.989400 18.708000 -75.916681 6.414651 25.106368 35.904907 -41.430329 -11.088395 0.337685 3.831918 -9.853974 -7.125000 0.000000 0.000000 78.772538 -28.820072 22.468937 -33.376634 33.852058 -5.969983 -0.143458 -4.609180 8.020409 7.125000 0.000000 0.000000 
-2.987686 17.886544 35.630561 0.758425 -6.283468 35.424745 -21.350468 -7.825902 -28.860204 -2.670869 8.678850 19.985592 -3.790542 13.773787 3.158509 1.107500 -6.686200 -18.789000 2.446211 25.675392 -47.813153 4.042401 -11.276704 14.732283 10.041032 -33.608096 -16.520104 -0.307400 -3.564500 9.854400 3.599955 1.469520 -46.261225 -0.407592 -0.453254 0.429385 8.255081 -16.025189 31.759287 3.151500 -7.059300 18.654200 -76.230887 6.604383 25.140436 35.562628 -41.142214 -10.884785 0.331972 3.833477 -9.548602 -7.125000 0.000000 0.000000 78.848633 -28.855361 22.436381 -33.421695 33.892882 -5.977631 -0.125199 -4.596914 8.000313 7.125000 0.000000 0.000000 
-3.004828 17.879032 35.739546 0.853617 -6.343115 35.452037 -21.457352 -7.717720 -28.450886 -2.696853 8.564056 19.794901 -3.813026 13.798287 3.047312 1.142200 -6.786700 -19.084900 0.438506 27.626194 -47.761618 4.103349 -11.091794 14.006356 10.373933 -34.933986 -20.149318 -0.456100 -4.332300 12.013400 3.643188 1.405188 -46.304991 -0.389376 -0.518278 0.438600 8.288122 -16.146957 31.619034 3.164500 -7.126300 18.606500 -76.566384 6.799821 25.149367 35.184411 -40.820382 -10.661864 0.324957 3.837035 -9.223524 -7.125000 0.000000 0.000000 78.913404 -28.880630 22.391421 -33.470361 33.936643 -5.986692 -0.109924 -4.582988 7.979699 7.125000 0.000000 0.000000 
-3.023239 17.869085 35.849272 0.938764 -6.410122 35.479659 -21.555459 -7.615413 -28.069230 -2.712717 8.475075 19.666585 -3.836403 13.820487 2.896444 1.180600 -6.895800 -19.407200 -1.475782 29.474057 -47.775459 4.155912 -10.952964 13.418270 10.506990 -35.920715 -23.722116 -0.621200 -5.043900 14.033800 3.696902 1.350367 -46.353500 -0.374069 -0.578341 0.438083 8.312992 -16.262294 31.484190 3.174800 -7.191700 18.561000 -76.923583 7.008049 25.138001 34.765138 -40.459580 -10.417289 0.320858 3.841159 -8.860392 -7.125000 0.000000 0.000000 78.968996 -28.904792 22.334270 -33.524853 33.985882 -5.998952 -0.096981 -4.569504 7.954917 7.125000 0.000000 0.000000 
-3.042814 17.856388 35.959634 1.013113 -6.489875 35.503029 -21.651191 -7.500230 -27.717758 -2.719282 8.410714 19.599464 -3.854043 13.825623 2.714438 1.222600 -7.013200 -19.754600 -3.113509 31.053901 -47.820582 4.199935 -10.850847 12.968226 10.474176 -36.573473 -26.850640 -0.781400 -5.643600 15.753900 3.768534 1.307696 -46.404122 -0.359818 -0.632852 0.430125 8.330522 -16.368683 31.353127 3.183100 -7.254200 18.515800 -77.308649 7.228085 25.087398 34.312423 -40.064945 -10.156286 0.315704 3.846792 -8.459834 -7.125000 0.000000 0.000000 79.008832 -28.925570 22.275875 -33.584155 34.040099 -6.014643 -0.086817 -4.557577 7.919152 7.125000 0.000000 0.000000 
-3.063553 17.841680 36.070735 1.078947 -6.591412 35.518827 -21.746890 -7.376208 -27.391834 -2.717541 8.368279 19.585319 -3.869552 13.823891 2.504454 1.268700 -7.139300 -20.128700 -4.249671 32.175248 -47.847386 4.234236 -10.774249 12.659027 10.360820 -36.928940 -29.132408 -0.911600 -6.083800 17.027800 3.845541 1.275334 -46.459878 -0.344412 -0.680255 0.408874 8.343788 -16.468086 31.222583 3.191100 -7.314900 18.467900 -77.716384 7.464874 24.996253 33.831351 -39.639598 -9.882318 0.308036 3.854244 -8.022714 -7.125000 0.000000 0.000000 79.039903 -28.946991 22.212777 -33.646668 34.097694 -6.032839 -0.078577 -4.547114 7.874725 7.125000 0.000000 0.000000 
